<svg width="22" height="22" viewBox="0 0 22 22" fill="none" xmlns="http://www.w3.org/2000/svg">
<path d="M21.8639 21.9299L21.8746 14.2544C21.8746 10.4963 21.0677 7.60864 16.6726 7.60864C14.56 7.60864 13.148 8.76581 12.5641 9.8699H12.5004V7.94836H8.33887V21.9193H12.6703V15.0082C12.6703 13.1822 13.0206 11.4199 15.2713 11.4199C17.4901 11.4199 17.5325 13.5006 17.5325 15.1249V21.9299H21.8639Z" fill="#868695"/>
<path d="M5.63183 7.94824H1.28979V21.9192H5.63183V7.94824Z" fill="#868695"/>
<path d="M3.45549 0.994629C2.06477 0.994629 0.939453 2.11995 0.939453 3.51068C0.939453 4.9014 2.06477 6.04795 3.45549 6.04795C4.84622 6.04795 5.97154 4.9014 5.97154 3.51068C5.97154 2.11995 4.84622 0.994629 3.45549 0.994629Z" fill="#868695"/>
</svg>
